<svg width="42" height="42" viewBox="0 0 42 42" fill="none" xmlns="http://www.w3.org/2000/svg">
<rect width="42" height="42" rx="21" fill="black"/>
<path d="M28.9042 26.4712C28.6079 27.1556 28.2573 27.7856 27.851 28.3647C27.2972 29.1543 26.8438 29.7009 26.4944 30.0043C25.9527 30.5025 25.3723 30.7576 24.7508 30.7722C24.3046 30.7722 23.7665 30.6452 23.1402 30.3876C22.5118 30.1313 21.9343 30.0043 21.4063 30.0043C20.8525 30.0043 20.2586 30.1313 19.6233 30.3876C18.987 30.6452 18.4745 30.7794 18.0826 30.7927C17.4866 30.8181 16.8925 30.5557 16.2996 30.0043C15.9211 29.6743 15.4477 29.1084 14.8806 28.3067C14.2722 27.4506 13.772 26.4579 13.3801 25.3262C12.9604 24.1037 12.75 22.9199 12.75 21.7739C12.75 20.4611 13.0337 19.3289 13.6018 18.3801C14.0484 17.618 14.6424 17.0168 15.3859 16.5754C16.1294 16.1341 16.9328 15.9092 17.7979 15.8948C18.2713 15.8948 18.8921 16.0412 19.6635 16.329C20.4328 16.6177 20.9267 16.7642 21.1433 16.7642C21.3052 16.7642 21.8539 16.593 22.7841 16.2516C23.6637 15.9351 24.4062 15.804 25.0144 15.8556C26.6624 15.9886 27.9006 16.6383 28.724 17.8088C27.2501 18.7018 26.521 19.9527 26.5355 21.5574C26.5488 22.8073 27.0022 23.8474 27.8933 24.6732C28.2972 25.0565 28.7482 25.3528 29.25 25.5631C29.1412 25.8787 29.0263 26.181 28.9042 26.4712ZM25.1244 11.5975C25.1244 12.5771 24.7665 13.4919 24.0531 14.3385C23.1922 15.345 22.1509 15.9266 21.0216 15.8348C21.0073 15.7173 20.9989 15.5936 20.9989 15.4636C20.9989 14.5231 21.4083 13.5166 22.1354 12.6937C22.4984 12.277 22.96 11.9306 23.5199 11.6542C24.0785 11.3819 24.6069 11.2314 25.1038 11.2056C25.1184 11.3366 25.1244 11.4675 25.1244 11.5975Z" fill="white"/>
</svg>
